<svg id="Calque_1" data-name="Calque 1" xmlns="http://www.w3.org/2000/svg" viewBox="0 0 375.54 564.16"><defs><style>.cls-1{fill:#fff;}</style></defs><title>logoreduitblanc</title><path class="cls-1" d="M236.84,136.57,314.2,56C249.53,10.28,161.14,11,98,56.23l84.82,81.44A38.25,38.25,0,0,0,236.84,136.57Z" transform="translate(-18.72 -22)"/><path class="cls-1" d="M131,191.62,46.7,110.71A191.17,191.17,0,0,0,30,144.39c-8.68,22.76-11.92,47-11.12,71.68.54,16.67,4.32,32.69,7.27,48.92a477.61,477.61,0,0,0,28.24,61.64l77.72-80.94A38.24,38.24,0,0,0,131,191.62Z" transform="translate(-18.72 -22)"/><path class="cls-1" d="M183.77,295.33,92.13,390.78c39.58,62.76,85.08,122,114.44,190.87.75,1.78,1.8,4.48,4.28,4.51,2.84,0,3-3,3.84-4.86,12.17-26.47,25.25-52.48,39.9-77.68,23.91-41.14,50.19-80.9,74.42-121.86l-91.17-87.53A38.25,38.25,0,0,0,183.77,295.33Z" transform="translate(-18.72 -22)"/><path class="cls-1" d="M363.68,108l-75.14,78.25a38.25,38.25,0,0,0,1.1,54.07l76.29,73.24c1.31-2.73,2.64-5.45,3.92-8.2,3.34-8,6.93-15.87,10-24C403.06,219.63,398.66,161.26,363.68,108Z" transform="translate(-18.72 -22)"/></svg>