<svg id="Calque_1" data-name="Calque 1" xmlns="http://www.w3.org/2000/svg" viewBox="0 0 1475.51 363.77"><defs><style>.cls-1,.cls-2{fill:#1d1d1b;}.cls-2{font-size:209px;font-family:Milliard-Bold, Milliard;font-weight:700;}.cls-3{letter-spacing:-0.01em;}</style></defs><title>logocompletnoir</title><path class="cls-1" d="M845.25,123.17l45.88-47.78c-38.35-27.12-90.77-26.7-128.24.14l50.3,48.29A22.67,22.67,0,0,0,845.25,123.17Z" transform="translate(-81.48 -26.03)"/><path class="cls-1" d="M782.47,155.82l-50-48a114.12,114.12,0,0,0-9.93,20c-5.14,13.5-7.06,27.86-6.59,42.51.32,9.89,2.56,19.39,4.31,29A282.9,282.9,0,0,0,737,235.89l46.09-48A22.68,22.68,0,0,0,782.47,155.82Z" transform="translate(-81.48 -26.03)"/><path class="cls-1" d="M813.78,217.32l-54.35,56.61c23.48,37.22,50.46,72.33,67.87,113.2.45,1.05,1.07,2.65,2.54,2.67,1.69,0,1.76-1.75,2.28-2.88,7.22-15.7,15-31.12,23.66-46.07,14.18-24.39,29.77-48,44.14-72.26l-54.07-51.92A22.69,22.69,0,0,0,813.78,217.32Z" transform="translate(-81.48 -26.03)"/><path class="cls-1" d="M920.48,106.2l-44.56,46.41a22.67,22.67,0,0,0,.65,32.07l45.24,43.43c.78-1.62,1.57-3.23,2.32-4.86,2-4.74,4.12-9.41,5.92-14.21C943.83,172.43,941.23,137.81,920.48,106.2Z" transform="translate(-81.48 -26.03)"/><text class="cls-2" transform="translate(783.11 177.65)"><tspan xml:space="preserve">  plo</tspan><tspan class="cls-3" x="399.39" y="0">r</tspan><tspan x="486.12" y="0">er</tspan></text><text class="cls-2" transform="translate(0 177.65)">Anger</text></svg>