<svg id="Calque_1" data-name="Calque 1" xmlns="http://www.w3.org/2000/svg" viewBox="0 0 391.15 587.6"><defs><style>.cls-1{fill:#283481;}</style></defs><title>logoreduitcouleur</title><path class="cls-1" d="M238.32,133.33l80.57-83.92C251.54,1.79,159.48,2.52,93.66,49.65L182,134.47A39.82,39.82,0,0,0,238.32,133.33Z" transform="translate(-11.14 -14)"/><path class="cls-1" d="M128.05,190.67,40.28,106.39a199.82,199.82,0,0,0-17.44,35.08c-9,23.71-12.4,48.94-11.58,74.66.56,17.37,4.51,34.06,7.58,51a497.33,497.33,0,0,0,29.41,64.2L129.2,247A39.82,39.82,0,0,0,128.05,190.67Z" transform="translate(-11.14 -14)"/><path class="cls-1" d="M183.05,298.69,87.6,398.1c41.22,65.37,88.61,127,119.19,198.8.79,1.85,1.88,4.66,4.46,4.7,3,0,3.09-3.09,4-5.06,12.68-27.58,26.3-54.67,41.55-80.91,24.91-42.85,52.29-84.26,77.52-126.92l-95-91.17A39.82,39.82,0,0,0,183.05,298.69Z" transform="translate(-11.14 -14)"/><path class="cls-1" d="M370.43,103.53,292.17,185a39.84,39.84,0,0,0,1.15,56.32l79.45,76.29c1.37-2.85,2.75-5.69,4.08-8.55,3.48-8.32,7.22-16.53,10.4-24.95C411.45,219.84,406.87,159,370.43,103.53Z" transform="translate(-11.14 -14)"/></svg>