<svg id="Calque_1" data-name="Calque 1" xmlns="http://www.w3.org/2000/svg" viewBox="0 0 378.28 568.26"><defs><style>.cls-1{fill:#1d1d1b;}</style></defs><title>logoreduitnoir</title><path class="cls-1" d="M236.42,135.3l77.93-81.16c-65.14-46-154.17-45.34-217.82.23l85.44,82A38.51,38.51,0,0,0,236.42,135.3Z" transform="translate(-16.72 -19.89)"/><path class="cls-1" d="M129.79,190.75,44.9,109.25A193.21,193.21,0,0,0,28,143.17c-8.74,22.93-12,47.33-11.2,72.2.54,16.8,4.36,32.94,7.33,49.28a481.22,481.22,0,0,0,28.44,62.09l78.28-81.53A38.51,38.51,0,0,0,129.79,190.75Z" transform="translate(-16.72 -19.89)"/><path class="cls-1" d="M183,295.21,90.66,391.36c39.87,63.22,85.7,122.84,115.28,192.26.76,1.79,1.81,4.51,4.31,4.54,2.86,0,3-3,3.87-4.89C226.38,556.6,239.55,530.4,254.3,505c24.09-41.44,50.57-81.49,75-122.74l-91.84-88.17A38.5,38.5,0,0,0,183,295.21Z" transform="translate(-16.72 -19.89)"/><path class="cls-1" d="M364.19,106.48,288.51,185.3a38.51,38.51,0,0,0,1.1,54.46l76.85,73.78c1.32-2.75,2.66-5.49,3.94-8.27,3.37-8,7-16,10.05-24.13C403.86,219,399.43,160.16,364.19,106.48Z" transform="translate(-16.72 -19.89)"/></svg>