<svg id="Calque_1" data-name="Calque 1" xmlns="http://www.w3.org/2000/svg" viewBox="0 0 1572.51 363.77"><defs><style>.cls-1{fill:#e20613;}.cls-2{fill:#283481;}.cls-3{font-size:209px;fill:#1d1d1b;font-family:Milliard-Bold, Milliard;font-weight:700;}.cls-4{letter-spacing:-0.01em;}</style></defs><title>logocompletcouleur</title><path class="cls-1" d="M746.4-.08" transform="translate(-35.64 -15.96)"/><path class="cls-2" d="M896.4,113.11l45.88-47.79c-38.35-27.11-90.77-26.69-128.24.14l50.3,48.3A22.68,22.68,0,0,0,896.4,113.11Z" transform="translate(-35.64 -15.96)"/><path class="cls-2" d="M833.62,145.76l-50-48a113.68,113.68,0,0,0-9.93,20c-5.14,13.5-7.06,27.87-6.59,42.51.32,9.89,2.56,19.39,4.31,29a284.88,284.88,0,0,0,16.75,36.56l46.09-48A22.68,22.68,0,0,0,833.62,145.76Z" transform="translate(-35.64 -15.96)"/><path class="cls-2" d="M864.93,207.26l-54.35,56.61c23.48,37.22,50.46,72.32,67.87,113.2.45,1.05,1.07,2.65,2.54,2.67,1.69,0,1.76-1.76,2.28-2.88,7.22-15.7,15-31.13,23.66-46.07,14.18-24.4,29.77-48,44.14-72.27L897,206.61A22.68,22.68,0,0,0,864.93,207.26Z" transform="translate(-35.64 -15.96)"/><path class="cls-2" d="M971.63,96.14l-44.56,46.41a22.67,22.67,0,0,0,.65,32.06L973,218.05c.78-1.62,1.57-3.23,2.33-4.87,2-4.73,4.11-9.41,5.91-14.2C995,162.37,992.38,127.75,971.63,96.14Z" transform="translate(-35.64 -15.96)"/><text class="cls-3" transform="translate(880.11 177.65)"><tspan xml:space="preserve">  plo</tspan><tspan class="cls-4" x="399.39" y="0">r</tspan><tspan x="486.12" y="0">er</tspan></text><text class="cls-3" transform="translate(0 177.65)">Angers</text></svg>